<?xml version="1.0" encoding="UTF-8"?>
<svg width="100px" height="31px" viewBox="0 0 100 31" version="1.1" xmlns="http://www.w3.org/2000/svg">
    <!-- Generator: Sketch 50.2 (55047) - http://www.bohemiancoding.com/sketch -->
    <title>airbnb logo copy</title>
    <desc>Created with Sketch.</desc>
    <defs></defs>
    <g id="Page-1" stroke="none" stroke-width="1" fill="none" fill-rule="evenodd">
        <g id="airbnb-logo-copy" fill="#FFFFFF" fill-rule="nonzero">
            <path d="M52.7018634,7.781 C52.7018634,8.897 51.8012422,9.796 50.6832298,9.796 C49.5652174,9.796 48.6645963,8.897 48.6645963,7.781 C48.6645963,6.665 49.5341615,5.766 50.6832298,5.766 C51.8322981,5.797 52.7018634,6.696 52.7018634,7.781 Z M44.378882,11.842 C44.378882,12.028 44.378882,12.338 44.378882,12.338 C44.378882,12.338 43.4161491,11.098 41.3664596,11.098 C37.9813665,11.098 35.3416149,13.671 35.3416149,17.236 C35.3416149,20.77 37.9503106,23.374 41.3664596,23.374 C43.447205,23.374 44.378882,22.103 44.378882,22.103 L44.378882,22.63 C44.378882,22.878 44.5652174,23.064 44.8136646,23.064 L47.3291925,23.064 L47.3291925,11.408 C47.3291925,11.408 45.0310559,11.408 44.8136646,11.408 C44.5652174,11.408 44.378882,11.625 44.378882,11.842 Z M44.378882,19.313 C43.9130435,19.995 42.9813665,20.584 41.863354,20.584 C39.8757764,20.584 38.3540373,19.344 38.3540373,17.236 C38.3540373,15.128 39.8757764,13.888 41.863354,13.888 C42.9503106,13.888 43.9440994,14.508 44.378882,15.159 L44.378882,19.313 Z M49.1925466,11.408 L52.173913,11.408 L52.173913,23.064 L49.1925466,23.064 L49.1925466,11.408 Z M93.7267081,11.098 C91.6770186,11.098 90.7142857,12.338 90.7142857,12.338 L90.7142857,5.797 L87.7329193,5.797 L87.7329193,23.064 C87.7329193,23.064 90.0310559,23.064 90.2484472,23.064 C90.4968944,23.064 90.6832298,22.847 90.6832298,22.63 L90.6832298,22.103 C90.6832298,22.103 91.6459627,23.374 93.6956522,23.374 C97.0807453,23.374 99.7204969,20.77 99.7204969,17.236 C99.7204969,13.702 97.0807453,11.098 93.7267081,11.098 Z M93.2298137,20.553 C92.0807453,20.553 91.1801242,19.964 90.7142857,19.282 L90.7142857,15.128 C91.1801242,14.508 92.173913,13.857 93.2298137,13.857 C95.2173913,13.857 96.7391304,15.097 96.7391304,17.205 C96.7391304,19.313 95.2173913,20.553 93.2298137,20.553 Z M86.1801242,16.151 L86.1801242,23.095 L83.1987578,23.095 L83.1987578,16.492 C83.1987578,14.57 82.5776398,13.795 80.9006211,13.795 C80,13.795 79.068323,14.26 78.4782609,14.942 L78.4782609,23.064 L75.4968944,23.064 L75.4968944,11.408 L77.8571429,11.408 C78.1055901,11.408 78.2919255,11.625 78.2919255,11.842 L78.2919255,12.338 C79.1614907,11.439 80.310559,11.098 81.4596273,11.098 C82.7639752,11.098 83.8509317,11.47 84.7204969,12.214 C85.7763975,13.082 86.1801242,14.198 86.1801242,16.151 Z M68.2608696,11.098 C66.2111801,11.098 65.2484472,12.338 65.2484472,12.338 L65.2484472,5.797 L62.2670807,5.797 L62.2670807,23.064 C62.2670807,23.064 64.5652174,23.064 64.7826087,23.064 C65.0310559,23.064 65.2173913,22.847 65.2173913,22.63 L65.2173913,22.103 C65.2173913,22.103 66.1801242,23.374 68.2298137,23.374 C71.6149068,23.374 74.2546584,20.77 74.2546584,17.236 C74.2857143,13.702 71.6459627,11.098 68.2608696,11.098 Z M67.7639752,20.553 C66.6149068,20.553 65.7142857,19.964 65.2484472,19.282 L65.2484472,15.128 C65.7142857,14.508 66.7080745,13.857 67.7639752,13.857 C69.7515528,13.857 71.2732919,15.097 71.2732919,17.205 C71.2732919,19.313 69.7515528,20.553 67.7639752,20.553 Z M59.689441,11.098 C60.5900621,11.098 61.0559006,11.253 61.0559006,11.253 L61.0559006,14.012 C61.0559006,14.012 58.5714286,13.175 57.0186335,14.942 L57.0186335,23.095 L54.0372671,23.095 L54.0372671,11.408 C54.0372671,11.408 56.3354037,11.408 56.552795,11.408 C56.8012422,11.408 56.9875776,11.625 56.9875776,11.842 L56.9875776,12.338 C57.5465839,11.687 58.757764,11.098 59.689441,11.098 Z M28.7267081,22.01 C28.5714286,21.638 28.4161491,21.235 28.2608696,20.894 C28.0124224,20.336 27.7639752,19.809 27.5465839,19.313 L27.515528,19.282 C25.3726708,14.632 23.0745342,9.92 20.6521739,5.27 L20.5590062,5.084 C20.310559,4.619 20.0621118,4.123 19.8136646,3.627 C19.5031056,3.069 19.1925466,2.48 18.6956522,1.922 C17.7018634,0.682 16.2732919,0 14.7515528,0 C13.1987578,0 11.8012422,0.682 10.7763975,1.86 C10.310559,2.418 9.9689441,3.007 9.65838509,3.565 C9.40993789,4.061 9.16149068,4.557 8.91304348,5.022 L8.81987578,5.208 C6.42857143,9.858 4.09937888,14.57 1.95652174,19.22 L1.92546584,19.282 C1.70807453,19.778 1.45962733,20.305 1.21118012,20.863 C1.05590062,21.204 0.900621118,21.576 0.745341615,21.979 C0.341614907,23.126 0.217391304,24.211 0.372670807,25.327 C0.714285714,27.652 2.26708075,29.605 4.40993789,30.473 C5.2173913,30.814 6.05590062,30.969 6.92546584,30.969 C7.17391304,30.969 7.48447205,30.938 7.73291925,30.907 C8.75776398,30.783 9.8136646,30.442 10.8385093,29.853 C12.1118012,29.14 13.3229814,28.117 14.689441,26.629 C16.0559006,28.117 17.2981366,29.14 18.5403727,29.853 C19.5652174,30.442 20.621118,30.783 21.6459627,30.907 C21.8944099,30.938 22.2049689,30.969 22.4534161,30.969 C23.3229814,30.969 24.1925466,30.814 24.9689441,30.473 C27.1428571,29.605 28.6645963,27.621 29.0062112,25.327 C29.2546584,24.242 29.1304348,23.157 28.7267081,22.01 Z M14.7204969,23.622 C13.0434783,21.514 11.9565217,19.53 11.5838509,17.856 C11.4285714,17.143 11.3975155,16.523 11.4906832,15.965 C11.552795,15.469 11.7391304,15.035 11.9875776,14.663 C12.5776398,13.826 13.5714286,13.299 14.7204969,13.299 C15.8695652,13.299 16.8944099,13.795 17.4534161,14.663 C17.7018634,15.035 17.8881988,15.469 17.9503106,15.965 C18.0434783,16.523 18.0124224,17.174 17.8571429,17.856 C17.484472,19.499 16.3975155,21.483 14.7204969,23.622 Z M27.1118012,25.079 C26.8944099,26.691 25.8074534,28.086 24.2857143,28.706 C23.5403727,29.016 22.7329193,29.109 21.9254658,29.016 C21.1490683,28.923 20.3726708,28.675 19.5652174,28.21 C18.447205,27.59 17.3291925,26.629 16.0248447,25.203 C18.0745342,22.692 19.3167702,20.398 19.7826087,18.352 C20,17.391 20.0310559,16.523 19.9378882,15.717 C19.8136646,14.942 19.5341615,14.229 19.0993789,13.609 C18.136646,12.214 16.5217391,11.408 14.7204969,11.408 C12.9192547,11.408 11.3043478,12.245 10.3416149,13.609 C9.9068323,14.229 9.62732919,14.942 9.50310559,15.717 C9.37888199,16.523 9.40993789,17.422 9.65838509,18.352 C10.1242236,20.398 11.3975155,22.723 13.4161491,25.234 C12.1428571,26.66 10.9937888,27.621 9.8757764,28.241 C9.06832298,28.706 8.29192547,28.954 7.51552795,29.047 C6.67701863,29.14 5.86956522,29.016 5.1552795,28.737 C3.63354037,28.117 2.54658385,26.722 2.32919255,25.11 C2.23602484,24.335 2.29813665,23.56 2.60869565,22.692 C2.70186335,22.382 2.85714286,22.072 3.01242236,21.7 C3.22981366,21.204 3.47826087,20.677 3.72670807,20.15 L3.75776398,20.088 C5.90062112,15.469 8.19875776,10.757 10.5900621,6.169 L10.6832298,5.983 C10.931677,5.518 11.1801242,5.022 11.4285714,4.557 C11.6770186,4.061 11.9565217,3.596 12.2981366,3.193 C12.9503106,2.449 13.8198758,2.046 14.7826087,2.046 C15.7453416,2.046 16.6149068,2.449 17.2670807,3.193 C17.6086957,3.596 17.8881988,4.061 18.136646,4.557 C18.3850932,5.022 18.6335404,5.518 18.8819876,5.983 L18.9751553,6.169 C21.3354037,10.788 23.6335404,15.5 25.7763975,20.119 L25.7763975,20.15 C26.0248447,20.646 26.242236,21.204 26.4906832,21.7 C26.6459627,22.072 26.8012422,22.382 26.8944099,22.692 C27.1428571,23.498 27.2360248,24.273 27.1118012,25.079 Z"
                  id="Shape"></path>
        </g>
    </g>
</svg>