<?xml version="1.0" encoding="UTF-8"?>
<svg width="87px" height="32px" viewBox="0 0 87 32" version="1.1" xmlns="http://www.w3.org/2000/svg">
    <!-- Generator: Sketch 44.1 (41455) - http://www.bohemiancoding.com/sketch -->
    <title>canon-logo-white</title>
    <desc>Created with Sketch.</desc>
    <defs></defs>
    <g id="Assets" stroke="none" stroke-width="1" fill="none" fill-rule="evenodd">
        <g id="Artboard" transform="translate(-738.000000, -370.000000)" fill-rule="nonzero" fill="#FFFFFF">
            <g id="Logotypes" transform="translate(574.000000, 370.000000)">
                <g id="Canon" transform="translate(164.000000, 0.000000)">
                    <path d="M6.77937043,19.8092674 C8.15635317,22.0847819 10.6817738,23.6114962 13.4923994,23.6114962 C17.6452498,23.6114962 19.9313332,19.9993068 19.9313332,19.9993068 L20.2255847,20.9615015 C18.3029511,23.4817639 14.8682711,25 11.0255434,25 C6.6012959,25 2.78570783,22.8727738 1.03003896,19.8051082 C0.369004712,18.6496747 0,17.3590701 0,15.99984 C0,11.0292204 4.93577528,7 11.0253846,7 C15.3280589,7 18.7922593,8.85752373 20.610778,11.5494295 L13.3913,15.9067399 L17.5114558,9.53018023 C16.332704,8.78297963 14.886523,8.0832889 13.3913,8.0832889 C9.16448992,8.0832889 5.68314869,11.6383705 5.68314869,15.8984217 C5.68314869,17.3257972 6.08532415,18.6669511 6.77937043,19.8092674 Z M26.1101385,19.8067079 C26.0884897,19.9520573 26.077667,20.0988362 26.0777614,20.2458142 C26.0777614,21.8629092 27.3785625,23.1741495 28.9831378,23.1741495 C30.5877131,23.1741495 31.8883555,21.8630692 31.8883555,20.2458142 C31.8884231,20.0983002 31.8775475,19.9509876 31.8558196,19.8051082 C31.6456853,18.3978885 30.4396351,17.3176389 28.9829791,17.3176389 C27.5264818,17.3176389 26.3202728,18.3978885 26.1101385,19.8067079 L26.1101385,19.8067079 Z M36.890631,19.8051082 L38.3345901,24.7074224 L33.2694648,24.7074224 L32.2735488,21.3505386 C31.6066423,23.2848459 29.3559516,24.7074224 26.6822942,24.7074224 C23.4833011,24.7074224 20.8902693,22.6710568 20.8902693,20.1586328 C20.8902693,20.0410579 20.8959829,19.9242828 20.9070928,19.8051082 C21.1346853,17.4601685 23.6332837,15.6098432 26.6822942,15.6098432 C28.4128867,15.6098432 29.9661981,16.2058761 31.0275033,17.1507945 L29.6478224,12.5015463 L23.8345301,12.5015463 C23.8345301,12.5015463 24.8017193,11.9168711 29.0909031,10.3439266 C33.3800868,8.77114216 34.7392939,12.5015463 34.7392939,12.5015463 L36.890631,19.8051082 L36.890631,19.8051082 Z M53.0850972,19.8051082 L53.0850972,24.7074224 L47.8733222,24.7074224 L47.8733222,13.9366002 C47.8733222,13.1440418 47.235864,12.5015463 46.4495195,12.5015463 C45.8625425,12.5014062 45.3356381,12.864344 45.122531,13.4155913 L45.122531,24.7074224 L40.0074115,24.7074224 L40.0074115,12.5015463 L37.0242663,12.5015463 C37.0242663,12.5015463 41.1742599,9.96752693 42.6132989,9.96752693 C43.9771086,9.96752693 44.986515,11.0236216 45.1126908,12.3689346 C47.1197591,11.2778074 49.1100038,9.96752693 50.4793684,9.96752693 C51.8941245,9.96752693 53.0457367,11.1039245 53.0850972,12.5207422 L53.0850972,19.8051082 Z M61.1138461,19.8051082 L61.8391586,22.2213928 C61.8531252,23.2570118 62.6974715,24.0854751 63.7338589,24.0854751 C64.7934183,24.0854751 65.6520486,23.2200597 65.6520486,22.1522875 C65.6520486,22.0766237 65.6477634,22.0022395 65.6393516,21.9289752 L65.0227567,19.8051082 L62.8574529,12.3463794 C62.7507986,11.3798656 61.938036,10.6285059 60.9506905,10.6285059 C59.9733438,10.6285059 59.0415474,11.5489496 58.9225136,12.5013864 L61.1138461,19.8051082 Z M69.4081198,19.806068 C68.4210917,22.8225445 65.6022131,25 62.2784726,25 C58.9545734,25 56.1355361,22.8227045 55.1481906,19.8051082 C54.8982661,19.0402988 54.7713331,18.2401182 54.7722026,17.4348939 C54.7722026,13.2567452 58.1327642,9.86994774 62.2784726,9.86994774 C66.4238636,9.86994774 69.7844252,13.2567452 69.7844252,17.4348939 C69.7844252,18.2630372 69.6523771,19.0603071 69.4081198,19.806068 L69.4081198,19.806068 Z M78.0374338,19.8051082 L78.0374338,24.7074224 L72.9221556,24.7074224 L72.9221556,12.5015463 L70.0616946,12.5015463 C70.0616946,12.5015463 74.089004,9.96752693 75.5282018,9.96752693 C76.8921702,9.96752693 77.9014179,11.0236216 78.0279111,12.3689346 C80.0349793,11.2778074 82.0249067,9.96752693 83.3942712,9.96752693 C84.8093448,9.96752693 85.9609569,11.1039245 86,12.5207422 L86,24.7074224 L80.7882251,24.7074224 L80.7882251,13.9366002 C80.7882251,13.1440418 80.1507669,12.5015463 79.3644224,12.5015463 C78.7774453,12.5014062 78.250541,12.864344 78.0374338,13.4155913 L78.0374338,19.8051082 L78.0374338,19.8051082 Z"></path>
                </g>
            </g>
        </g>
    </g>
</svg>