<?xml version="1.0" encoding="UTF-8"?>
<svg width="80px" height="32px" viewBox="0 0 80 32" version="1.1" xmlns="http://www.w3.org/2000/svg">
    <!-- Generator: Sketch 44.1 (41455) - http://www.bohemiancoding.com/sketch -->
    <title>google-logo-white</title>
    <desc>Created with Sketch.</desc>
    <defs></defs>
    <g id="Assets" stroke="none" stroke-width="1" fill="none" fill-rule="evenodd">
        <g id="Artboard" transform="translate(-1230.000000, -370.000000)" fill-rule="nonzero" fill="#FFFFFF">
            <g id="Logotypes" transform="translate(574.000000, 370.000000)">
                <g id="Group" transform="translate(656.000000, 0.000000)">
                    <g id="Google" transform="translate(0.000000, 4.000000)">
                        <path d="M9.96984925,0 L10.680067,0 C13.1457286,0.0553846154 15.5711893,1.08 17.3132328,2.89384615 C16.6700168,3.57230769 16.0134003,4.22307692 15.3835846,4.90153846 C14.4053601,3.98769231 13.2261307,3.28153846 11.9396985,3.03230769 C10.0368509,2.61692308 7.98659966,2.99076923 6.3919598,4.11230769 C4.64991625,5.28923077 3.47068677,7.28307692 3.2160804,9.41538462 C2.93467337,11.52 3.51088777,13.7353846 4.83752094,15.3692308 C6.11055276,16.9615385 8.05360134,17.9584615 10.0636516,18.0276923 C11.9396985,18.1384615 13.8961474,17.5430769 15.2629816,16.1861538 C16.3350084,15.2307692 16.8308208,13.7769231 16.9916248,12.3646154 C14.7671692,12.3646154 12.5427136,12.3784615 10.318258,12.3646154 L10.318258,9.51230769 L19.6850921,9.51230769 C20.1675042,12.5723077 19.4706868,16.02 17.2194305,18.2076923 C15.718593,19.7584615 13.641541,20.6723077 11.5242881,20.8523077 C9.47403685,21.06 7.35678392,20.6584615 5.53433836,19.6338462 C3.35008375,18.4292308 1.6080402,16.3938462 0.75041876,13.9984615 C-0.05360134,11.7969231 -0.067001675,9.30461538 0.683417085,7.08923077 C1.36683417,5.06769231 2.680067,3.28153846 4.36850921,2.03538462 C5.98994975,0.803076923 7.95979899,0.124615385 9.96984925,0 Z"
                              id="Shape"></path>
                        <path d="M63.7051926,0.72 L66.5728643,0.72 L66.5728643,20.4923077 C65.6214405,20.4923077 64.6566164,20.5061538 63.7051926,20.4784615 C63.718593,13.9015385 63.7051926,7.31076923 63.7051926,0.72 Z"
                              id="Shape"></path>
                        <path d="M26.0636516,7.57384615 C27.8324958,7.22769231 29.7487437,7.61538462 31.2093802,8.70923077 C32.5360134,9.67846154 33.4606365,11.2015385 33.7420436,12.8630769 C34.1038526,14.7876923 33.6482412,16.8923077 32.4422111,18.4153846 C31.1423786,20.1184615 29.0117253,21.0323077 26.9346734,20.8938462 C25.0318258,20.7830769 23.1825796,19.8 22.0569514,18.1938462 C20.7839196,16.4215385 20.4757119,13.9846154 21.1725293,11.9076923 C21.8693467,9.67846154 23.839196,7.97538462 26.0636516,7.57384615 L26.0636516,7.57384615 Z M26.4656616,10.2046154 C25.7420436,10.3984615 25.0720268,10.8276923 24.5896147,11.4369231 C23.2897822,13.0430769 23.3701843,15.66 24.8040201,17.1553846 C25.6214405,18.0138462 26.8542714,18.4153846 27.9932998,18.18 C29.0519263,17.9861538 29.9765494,17.2523077 30.4857621,16.2830769 C31.3701843,14.6353846 31.1155779,12.3646154 29.7621441,11.0769231 C28.8911223,10.2461538 27.6180905,9.9 26.4656616,10.2046154 Z"
                              id="Shape"></path>
                        <path d="M40.2680067,7.57384615 C42.2914573,7.17230769 44.5025126,7.75384615 46.0167504,9.22153846 C48.4824121,11.5061538 48.7504188,15.7846154 46.6465662,18.4153846 C45.3735343,20.0769231 43.3098827,20.9907692 41.2730318,20.8938462 C39.3299832,20.8384615 37.4137353,19.8415385 36.2613065,18.1938462 C34.961474,16.38 34.680067,13.8876923 35.4170854,11.7692308 C36.1541039,9.60923077 38.0837521,7.96153846 40.2680067,7.57384615 L40.2680067,7.57384615 Z M40.6700168,10.2046154 C39.9463987,10.3984615 39.2763819,10.8276923 38.7939698,11.4230769 C37.5075377,13.0015385 37.561139,15.5769231 38.9413735,17.0861538 C39.758794,17.9861538 41.0318258,18.4292308 42.2110553,18.18 C43.2562814,17.9723077 44.1943049,17.2523077 44.7035176,16.2830769 C45.5745394,14.6215385 45.319933,12.3507692 43.9530988,11.0630769 C43.0820771,10.2323077 41.8090452,9.9 40.6700168,10.2046154 Z"
                              id="Shape"></path>
                        <path d="M52.3149079,8.37692308 C53.8559464,7.38 55.9061977,7.10307692 57.5678392,7.96153846 C58.0904523,8.19692308 58.519263,8.59846154 58.9346734,9 C58.9480737,8.62615385 58.9346734,8.23846154 58.9480737,7.85076923 C59.8458961,7.86461538 60.7437186,7.85076923 61.6549414,7.86461538 L61.6549414,20.0769231 C61.641541,21.9184615 61.1859296,23.8707692 59.8994975,25.2138462 C58.4924623,26.6953846 56.3350084,27.1523077 54.3919598,26.8476923 C52.3149079,26.5292308 50.5058626,24.9646154 49.7018425,22.9846154 C50.5058626,22.5830769 51.3500838,22.2646154 52.1809045,21.8907692 C52.6499162,23.0261538 53.60134,23.9953846 54.7939698,24.2169231 C55.9865997,24.4384615 57.3668342,24.1338462 58.1440536,23.1092308 C58.9748744,22.0569231 58.9748744,20.6169231 58.9346734,19.3292308 C58.318258,19.9523077 57.6080402,20.5061538 56.7504188,20.7138462 C54.8877722,21.2538462 52.8375209,20.5892308 51.4036851,19.2876923 C49.9564489,17.9861538 49.0988275,15.9784615 49.1792295,13.9846154 C49.2194305,11.7276923 50.4522613,9.55384615 52.3149079,8.37692308 L52.3149079,8.37692308 Z M55.0887772,10.1492308 C54.2713568,10.2876923 53.5075377,10.7584615 52.9849246,11.4092308 C51.7252931,12.96 51.7252931,15.4384615 52.998325,16.9615385 C53.721943,17.8615385 54.8877722,18.36 56.0134003,18.2353846 C57.0720268,18.1246154 58.0502513,17.4323077 58.5728643,16.4769231 C59.4572864,14.8569231 59.3098827,12.6553846 58.1172529,11.2430769 C57.3802345,10.3707692 56.201005,9.94153846 55.0887772,10.1492308 L55.0887772,10.1492308 Z"
                              id="Shape"></path>
                        <path d="M70.0167504,9.08307692 C71.6247906,7.53230769 74.1038526,7.00615385 76.1675042,7.82307692 C78.1239531,8.58461538 79.3701843,10.5092308 80,12.4892308 C77.0921273,13.7353846 74.1976549,14.9676923 71.2897822,16.2138462 C71.6917923,17.0030769 72.3082077,17.7230769 73.1390285,18.0138462 C74.3048576,18.4430769 75.6984925,18.2907692 76.6767169,17.4876923 C77.0653266,17.1830769 77.3735343,16.7815385 77.6683417,16.3938462 C78.4053601,16.9061538 79.1423786,17.4046154 79.879397,17.9169231 C78.8341709,19.5369231 77.078727,20.6723077 75.1892797,20.8523077 C73.0988275,21.1153846 70.8743719,20.2846154 69.520938,18.5953846 C67.2964824,15.9369231 67.5108878,11.4784615 70.0167504,9.08307692 L70.0167504,9.08307692 Z M71.4505863,11.6446154 C70.9949749,12.3230769 70.8073702,13.1538462 70.8207705,13.9707692 C72.7638191,13.14 74.7068677,12.3092308 76.6499162,11.4646154 C76.3283082,10.6892308 75.5510888,10.2184615 74.760469,10.0938462 C73.4874372,9.85846154 72.160804,10.5646154 71.4505863,11.6446154 L71.4505863,11.6446154 Z"
                              id="Shape"></path>
                    </g>
                </g>
            </g>
        </g>
    </g>
</svg>