<?xml version="1.0" encoding="UTF-8"?>
<svg width="100px" height="32px" viewBox="0 0 100 32" version="1.1" xmlns="http://www.w3.org/2000/svg">
    <!-- Generator: Sketch 44.1 (41455) - http://www.bohemiancoding.com/sketch -->
    <title>national-geographic-logo-white</title>
    <desc>Created with Sketch.</desc>
    <defs></defs>
    <g id="Assets" stroke="none" stroke-width="1" fill="none" fill-rule="evenodd">
        <g id="Artboard" transform="translate(-574.000000, -370.000000)" fill-rule="nonzero" fill="#FFFFFF">
            <g id="Logotypes" transform="translate(574.000000, 370.000000)">
                <g id="National-Geographic">
                    <g transform="translate(0.000000, 1.000000)" id="Shape">
                        <path d="M0.284745763,0.31754717 L20.6440678,0.31754717 L20.6440678,29.5443396 L0.284745763,29.5443396 L0.284745763,0.31754717 Z M3.21920904,26.6020755 L17.699435,26.6020755 L17.699435,3.2609434 L3.21920904,3.2609434 L3.21920904,26.6020755 L3.21920904,26.6020755 Z"></path>
                        <path d="M34.1677966,13.4303774 L32.9084746,13.4303774 C31.2542373,11.0892453 29.6135593,8.76283019 27.9751412,6.13358491 L27.9632768,6.13358491 L27.9632768,13.4303774 L26.5711864,13.4303774 L26.5711864,3.25641509 L27.8316384,3.25641509 C29.4858757,5.58113208 31.1242938,7.89113208 32.7474576,10.5067925 L32.7762712,10.5067925 L32.7762712,3.25641509 L34.1683616,3.25641509 L34.1683616,13.4303774 L34.1677966,13.4303774 Z M37.4768362,9.40358491 C37.880791,8.06603774 38.2875706,6.8309434 38.6508475,5.26075472 L38.680226,5.26075472 C39.0858757,6.8309434 39.4491525,8.06660377 39.8259887,9.40358491 L37.4768362,9.40358491 L37.4768362,9.40358491 Z M38.1423729,3.25641509 L34.6338983,13.4303774 L36.1423729,13.4303774 L37.0248588,10.6533962 L40.0875706,10.6533962 L40.8847458,13.4303774 L42.8299435,13.4303774 L39.5937853,3.25641509 L38.1423729,3.25641509 L38.1423729,3.25641509 Z M44.4677966,13.4303774 L44.4677966,4.62113208 L41.7977401,4.62113208 L41.7977401,3.25641509 L48.8762712,3.25641509 L48.8762712,4.62113208 L46.2084746,4.62113208 L46.2084746,13.4303774 L44.4677966,13.4303774 Z M49.440678,3.25641509 L51.1694915,3.25641509 L51.1694915,13.4303774 L49.440678,13.4303774 L49.440678,3.25641509 Z M56.5367232,12.149434 C54.7214689,12.149434 54.0836158,10.1439623 54.0836158,8.19622642 C54.0836158,6.32207547 54.8084746,4.53396226 56.5367232,4.53396226 C58.2627119,4.53396226 58.9853107,6.32207547 58.9853107,8.19622642 C58.9853107,10.1439623 58.3485876,12.149434 56.5367232,12.149434 Z M56.5367232,13.6024528 C59.1903955,13.6024528 60.8435028,11.234717 60.8435028,8.19566038 C60.8435028,5.34792453 59.0186441,3.0809434 56.5367232,3.0809434 C54.0570621,3.0809434 52.2242938,5.34792453 52.2242938,8.19566038 C52.2248588,11.235283 53.880791,13.6024528 56.5367232,13.6024528 Z M69.5033898,13.4303774 L68.2423729,13.4303774 C66.5870056,11.0892453 64.9474576,8.76283019 63.3101695,6.13358491 L63.2960452,6.13358491 L63.2960452,13.4303774 L61.9056497,13.4303774 L61.9056497,3.25641509 L63.1666667,3.25641509 C64.8186441,5.58113208 66.4581921,7.89113208 68.080226,10.5067925 L68.1101695,10.5067925 L68.1101695,3.25641509 L69.5039548,3.25641509 L69.5039548,13.4303774 L69.5033898,13.4303774 Z M72.8107345,9.40358491 C73.2180791,8.06603774 73.6220339,6.8309434 73.9870056,5.26075472 L74.0158192,5.26075472 C74.4220339,6.8309434 74.7836158,8.06660377 75.159887,9.40358491 L72.8107345,9.40358491 Z M73.479661,3.25641509 L69.9694915,13.4303774 L71.479096,13.4303774 L72.3615819,10.6533962 L75.4237288,10.6533962 L76.2214689,13.4303774 L78.1644068,13.4303774 L74.9288136,3.25641509 L73.479661,3.25641509 Z M78.6700565,3.25641509 L80.399435,3.25641509 L80.399435,12.0633962 L83.8355932,12.0633962 L83.8355932,13.4303774 L78.6700565,13.4303774 L78.6700565,3.25641509 Z M33.0977401,21.9401887 L33.0977401,26.1390566 C32.1683616,26.5041509 31.1960452,26.7639623 30.2124294,26.7639623 C27.2231638,26.7639623 25.3378531,24.4386792 25.3378531,21.4443396 C25.3378531,18.6673585 27.2231638,16.2413208 30.2694915,16.2413208 C31.2107345,16.2413208 32.1542373,16.5916981 32.7350282,17.0269811 L32.1689266,18.2332075 C31.7056497,17.9450943 30.9785311,17.6977358 30.3124294,17.6977358 C28.4570621,17.6977358 27.1937853,19.1660377 27.1937853,21.4771698 C27.1937853,23.8879245 28.6451977,25.3109434 30.139548,25.3109434 C30.6016949,25.3109434 30.9954802,25.2554717 31.359887,25.064717 L31.359887,21.9401887 L33.0977401,21.9401887 L33.0977401,21.9401887 Z M39.3237288,17.7849057 L36.419209,17.7849057 L36.419209,20.5737736 L39.2621469,20.5737736 L39.2621469,21.9401887 L36.419209,21.9401887 L36.419209,25.2226415 L39.8423729,25.2226415 L39.8423729,26.5907547 L34.6774011,26.5907547 L34.6774011,16.4162264 L39.3237288,16.4162264 L39.3237288,17.7849057 Z M44.6903955,25.3103774 C42.8751412,25.3103774 42.2361582,23.3066038 42.2361582,21.3577358 C42.2361582,19.484717 42.9615819,17.6971698 44.6903955,17.6971698 C46.4152542,17.6971698 47.1389831,19.484717 47.1389831,21.3577358 C47.1389831,23.3066038 46.499435,25.3103774 44.6903955,25.3103774 Z M44.6903955,26.7639623 C47.3435028,26.7639623 48.9960452,24.3950943 48.9960452,21.3571698 C48.9960452,18.509434 47.1694915,16.2407547 44.6903955,16.2407547 C42.2067797,16.2407547 40.3813559,18.509434 40.3813559,21.3571698 C40.380791,24.3956604 42.0316384,26.7639623 44.6903955,26.7639623 L44.6903955,26.7639623 Z M57.3502825,21.9401887 L57.3502825,26.1390566 C56.420904,26.5041509 55.4514124,26.7639623 54.4638418,26.7639623 C51.4768362,26.7639623 49.5898305,24.4386792 49.5898305,21.4443396 C49.5898305,18.6673585 51.4768362,16.2413208 54.5231638,16.2413208 C55.4666667,16.2413208 56.4079096,16.5916981 56.9870056,17.0269811 L56.420904,18.2332075 C55.9564972,17.9450943 55.2355932,17.6977358 54.5672316,17.6977358 C52.7079096,17.6977358 51.4457627,19.1660377 51.4457627,21.4771698 C51.4457627,23.8879245 52.8977401,25.3109434 54.3920904,25.3109434 C54.8576271,25.3109434 55.2474576,25.2554717 55.6112994,25.064717 L55.6112994,21.9401887 L57.3502825,21.9401887 L57.3502825,21.9401887 Z M60.6903955,17.7849057 L61.4570621,17.7849057 C62.4841808,17.7849057 63.0661017,18.3781132 63.0661017,19.4258491 C63.0661017,20.790566 62.240678,21.4001887 61.4129944,21.4437736 C61.2384181,21.4613208 60.8316384,21.4760377 60.6903955,21.4884906 L60.6903955,17.7849057 L60.6903955,17.7849057 Z M65.0988701,26.5907547 L63.0497175,22.3777358 C64.1666667,21.7833962 64.8084746,20.5737736 64.8084746,19.3528302 C64.8084746,17.3745283 63.6022599,16.4162264 61.6581921,16.4162264 L58.9457627,16.4162264 L58.9457627,26.5907547 L60.6903955,26.5907547 L60.6903955,22.7541509 L61.4728814,22.7541509 L63.1090395,26.5907547 L65.0988701,26.5907547 L65.0988701,26.5907547 Z M67.9700565,22.5645283 C68.3751412,21.225283 68.7813559,19.9913208 69.1451977,18.4216981 L69.1740113,18.4216981 C69.580226,19.9913208 69.9418079,21.225283 70.319209,22.5645283 L67.9700565,22.5645283 Z M68.6361582,16.4162264 L65.1248588,26.5907547 L66.6333333,26.5907547 L67.519209,23.8137736 L70.5813559,23.8137736 L71.3745763,26.5907547 L73.3220339,26.5907547 L70.0853107,16.4162264 L68.6361582,16.4162264 L68.6361582,16.4162264 Z M76.5847458,16.4162264 L73.8723164,16.4162264 L73.8723164,26.5907547 L75.6135593,26.5907547 L75.6135593,22.7541509 L76.3949153,22.7541509 C78.4706215,22.7541509 79.7338983,21.0679245 79.7338983,19.3528302 C79.7338983,17.3739623 78.5288136,16.4162264 76.5847458,16.4162264 Z M76.340678,21.4443396 C76.159887,21.4607547 75.7350282,21.4743396 75.6135593,21.4862264 L75.6135593,17.7849057 L76.3949153,17.7849057 C77.4101695,17.7849057 77.9926554,18.3781132 77.9926554,19.4258491 C77.9926554,20.790566 77.1683616,21.4007547 76.340678,21.4443396 Z M87.7977401,26.5907547 L86.0576271,26.5907547 L86.0576271,21.6945283 L82.4429379,21.6945283 L82.4429379,26.5907547 L80.7214689,26.5907547 L80.7214689,16.4162264 L82.4429379,16.4162264 L82.4429379,20.3258491 L86.0576271,20.3258491 L86.0576271,16.4450943 L87.7977401,16.4450943 L87.7977401,26.5907547 Z M89.4644068,16.4162264 L91.1943503,16.4162264 L91.1943503,26.5907547 L89.4644068,26.5907547 L89.4644068,16.4162264 Z M99.0242938,18.2632075 C98.6028249,18.0011321 97.9096045,17.6971698 97.2389831,17.6971698 C95.4666667,17.6971698 94.180226,19.1654717 94.180226,21.4766038 C94.180226,23.8873585 95.600565,25.3103774 97.2841808,25.3103774 C97.9004323,25.3074693 98.5034383,25.1309338 99.0242938,24.8009434 L99.5045198,26.0666038 C98.979096,26.429434 98.0536723,26.7639623 97.2135593,26.7639623 C94.2242938,26.7639623 92.3372881,24.4386792 92.3372881,21.4443396 C92.3372881,18.6673585 94.2079096,16.2413208 97.2389831,16.2413208 C98.140678,16.2413208 98.979096,16.6216981 99.5774011,17.0269811 L99.0242938,18.2632075 L99.0242938,18.2632075 Z"></path>
                    </g>
                </g>
            </g>
        </g>
    </g>
</svg>