<?xml version="1.0" encoding="UTF-8"?>
<svg width="108px" height="32px" viewBox="0 0 108 32" version="1.1" xmlns="http://www.w3.org/2000/svg">
    <!-- Generator: Sketch 44.1 (41455) - http://www.bohemiancoding.com/sketch -->
    <title>spotify-logo-white</title>
    <desc>Created with Sketch.</desc>
    <defs></defs>
    <g id="Assets" stroke="none" stroke-width="1" fill="none" fill-rule="evenodd">
        <g id="Artboard" transform="translate(-1058.000000, -370.000000)" fill-rule="nonzero" fill="#FFFFFF">
            <g id="Logotypes" transform="translate(574.000000, 370.000000)">
                <g id="Spotify" transform="translate(484.000000, 0.000000)">
                    <path d="M16.1959552,0 C7.25136731,0 0,7.16339482 0,15.9997107 C0,24.8369764 7.25136731,32 16.1959552,32 C25.1409408,32 32.3919103,24.8369873 32.3919103,15.9997107 C32.3919103,7.16396254 25.1413166,0.000764239853 16.1957562,0.000764239853 L16.1959552,0 Z M23.6233174,23.0761787 C23.3324423,23.5475291 22.7108513,23.695213 22.2352727,23.4080444 C18.4320469,21.1117001 13.6449845,20.5929669 8.00735538,21.8652406 C7.4640974,21.9882942 6.92257451,21.6518321 6.7988089,21.1153248 C6.6744465,20.5786428 7.01347299,20.0436749 7.5580903,19.9214075 C13.7275722,18.5280017 19.0195992,19.1277444 23.2885347,21.7047503 C23.7643012,21.9932617 23.915143,22.6065642 23.6231185,23.0765608 L23.6233174,23.0761787 L23.6233174,23.0761787 Z M25.605667,18.720219 C25.2393654,19.3073408 24.46228,19.4915226 23.8687378,19.130987 C19.5162531,16.4878743 12.8793153,15.7222916 7.73002935,17.2664492 C7.06221005,17.4657192 6.35688201,17.0939165 6.15419772,16.4353383 C5.95306065,15.7756028 6.32961799,15.0801445 6.99626583,14.8795316 C12.8781659,13.1164412 20.1902501,13.9704683 25.1896558,17.0054612 C25.783408,17.3665646 25.970996,18.1346256 25.605468,18.7204046 L25.605667,18.720219 Z M25.7758599,14.1836912 C20.5551924,11.1208144 11.943829,10.839192 6.96008325,12.3334665 C6.15980083,12.5732413 5.3134779,12.1269252 5.07095301,11.3363191 C4.82842811,10.5453418 5.27982612,9.70983109 6.08069428,9.46947766 C11.8016847,7.75377011 21.3121751,8.08525368 27.3218967,11.6097314 C28.0417353,12.0317774 28.2778835,12.9501971 27.8512298,13.6603725 C27.4257475,14.3714977 26.4935545,14.6059228 25.7760477,14.1836912 L25.7758599,14.1836912 L25.7758599,14.1836912 Z M44.0638395,14.7706274 C41.2674485,14.1118526 40.7696342,13.6494985 40.7696342,12.6779422 C40.7696342,11.760101 41.6443815,11.1424096 42.9451969,11.1424096 C44.2061716,11.1424096 45.4565038,11.6114564 46.767376,12.5770734 C46.8070287,12.6063111 46.8567383,12.6179493 46.9056633,12.6103179 C46.9545993,12.6030576 46.9979211,12.5764948 47.0265444,12.5365687 L48.3919557,10.63514 C48.448042,10.5568054 48.4327578,10.4488619 48.3571436,10.3890547 C46.7969829,9.15232904 45.040128,8.55105788 42.9866068,8.55105788 C39.9672299,8.55105788 37.8581971,10.3410932 37.8581971,12.9022575 C37.8581971,15.648739 39.6775151,16.6212342 42.8214423,17.3719033 C45.497339,17.980806 45.948936,18.490947 45.948936,19.4028707 C45.948936,20.4133814 45.0356853,21.0415866 43.5660363,21.0415866 C41.9337426,21.0415866 40.6023699,20.4984086 39.112983,19.2242242 C39.076049,19.1926939 39.0253668,19.1783807 38.9785748,19.1810556 C38.9292521,19.1850624 38.8841841,19.2076075 38.8528642,19.2448696 L37.3219016,21.0448401 C37.2576924,21.1195391 37.2658153,21.2311181 37.3400923,21.2957073 C39.0729546,22.8239904 41.2042229,23.6312242 43.504159,23.6312242 C46.7577281,23.6312242 48.8601962,21.8750011 48.8601962,19.1567964 C48.8659983,16.8621663 47.4754559,15.5916175 44.0696637,14.7731166 L44.0638395,14.7706274 L44.0638395,14.7706274 Z M56.2210064,12.0461123 C54.8107371,12.0461123 53.654,12.5948365 52.7001461,13.719219 L52.7001461,12.4536378 C52.7001461,12.3537189 52.6181441,12.2723273 52.5171887,12.2723273 L50.0132311,12.2723273 C49.9120879,12.2723273 49.8302737,12.3537189 49.8302737,12.4536378 L49.8302737,26.5160113 C49.8302737,26.6159302 49.9120768,26.6973218 50.0132311,26.6973218 L52.5171887,26.6973218 C52.6181441,26.6973218 52.7001461,26.6159412 52.7001461,26.5160113 L52.7001461,22.0771207 C53.654199,23.1348286 54.8111239,23.6516513 56.2210064,23.6516513 C58.8413915,23.6516513 61.4940911,21.6589068 61.4940911,17.8495532 C61.4979592,14.0392499 58.844497,12.0459267 56.223913,12.0459267 L56.2210064,12.0461123 Z M58.582433,17.8495532 C58.582433,19.7893905 57.372903,21.1430449 55.6409912,21.1430449 C53.9288284,21.1430449 52.6372963,19.7278583 52.6372963,17.8495532 C52.6372963,15.9714447 53.9288284,14.5560725 55.6409912,14.5560725 C57.3448654,14.555876 58.582632,15.9406786 58.582632,17.8493567 L58.582433,17.8495532 L58.582433,17.8495532 Z M68.2930879,12.0461123 C64.9184388,12.0461123 62.2746467,14.613194 62.2746467,17.8910078 C62.2746467,21.1330989 64.9002591,23.6732356 68.2517001,23.6732356 C71.6383401,23.6732356 74.290244,21.1147571 74.290244,17.8495423 C74.290244,14.5956056 71.6561219,12.0464944 68.292889,12.0464944 L68.2930879,12.0461123 L68.2930879,12.0461123 Z M68.2930879,21.1623365 C66.4981274,21.1623365 65.1449059,19.7375969 65.1449059,17.8485925 C65.1449059,15.9515527 66.4513354,14.5749711 68.251689,14.5749711 C70.0582536,14.5749711 71.4205595,15.9996998 71.4205595,17.890047 C71.4205595,19.7867048 70.1054435,21.1623365 68.2932647,21.1623365 L68.2930879,21.1623365 L68.2930879,21.1623365 Z M81.4965433,12.2723382 L78.7411643,12.2723382 L78.7411643,9.48935881 C78.7411643,9.38962551 78.6595491,9.30823397 78.5584059,9.30823397 L76.054835,9.30823397 C75.9534929,9.30823397 75.871303,9.38962551 75.871303,9.48935881 L75.871303,12.2723382 L74.667376,12.2723382 C74.5666196,12.2723382 74.4849933,12.3537189 74.4849933,12.4536487 L74.4849933,14.5795674 C74.4849933,14.6793007 74.5666196,14.7608779 74.667376,14.7608779 L75.871303,14.7608779 L75.871303,20.2616798 C75.871303,22.484657 76.9912828,23.6117252 79.2001105,23.6117252 C80.098276,23.6117252 80.8434336,23.4284932 81.5456783,23.0351062 C81.602726,23.0035759 81.6381129,22.9428297 81.6381129,22.8782515 L81.6381129,20.8537801 C81.6381129,20.791298 81.6052237,20.732266 81.5510824,20.6996002 C81.4965433,20.6657771 81.4286651,20.664063 81.3727667,20.6913791 C80.8904134,20.9311648 80.4241401,21.0417831 79.9029188,21.0417831 C79.099542,21.0417831 78.7411643,20.681444 78.7411643,19.873839 L78.7411643,14.7618496 L81.4965433,14.7618496 C81.5976866,14.7618496 81.6791139,14.680458 81.6791139,14.5805391 L81.6791139,12.454806 C81.6829819,12.3548871 81.6017535,12.2734955 81.499262,12.2734955 L81.4965433,12.2723382 L81.4965433,12.2723382 Z M91.0969707,12.2832232 L91.0969707,11.9414115 C91.0969707,10.9358574 91.4872429,10.4874451 92.362587,10.4874451 C92.8845709,10.4874451 93.3038754,10.5898533 93.773442,10.7446119 C93.8312745,10.7625824 93.8916046,10.7535971 93.9386065,10.7193919 C93.9869568,10.6851867 94.0142319,10.630358 94.0142319,10.5722758 L94.0142319,8.48781157 C94.0142319,8.4081341 93.9624004,8.33763844 93.8846421,8.3141326 C93.3885629,8.16834839 92.7538318,8.0187539 91.8034702,8.0187539 C89.4907696,8.0187539 88.2682871,9.30535169 88.2682871,11.7381127 L88.2682871,12.261617 L87.0653327,12.261617 C86.9643774,12.261617 86.8816017,12.3430086 86.8816017,12.4427419 L86.8816017,14.5795565 C86.8816017,14.6792898 86.9643774,14.760867 87.0653327,14.760867 L88.2682871,14.760867 L88.2682871,23.2456325 C88.2682871,23.3455514 88.3499024,23.4269429 88.4508688,23.4269429 L90.9548264,23.4269429 C91.0559696,23.4269429 91.1383585,23.3455514 91.1383585,23.2456325 L91.1383585,14.7614565 L93.4761902,14.7614565 L97.0573916,23.2441258 C96.6508626,24.1354151 96.2510861,24.3127188 95.7053305,24.3127188 C95.2641772,24.3127188 94.7996279,24.1826015 94.3246239,23.9258169 C94.2799538,23.9015468 94.2269619,23.89754 94.1788106,23.9122571 C94.131035,23.9288738 94.0908187,23.9640289 94.070506,24.0098833 L93.2218623,25.8492121 C93.181436,25.9361498 93.2160603,26.0381867 93.3007699,26.083266 C94.1867345,26.5572803 94.9864644,26.7596073 95.9749315,26.7596073 C97.8238344,26.7596073 98.8457765,25.9088228 99.7466385,23.6199244 L104.090603,12.530826 C104.112451,12.4750365 104.105887,12.4119867 104.071262,12.3625076 C104.036859,12.3133998 103.981336,12.2837909 103.920598,12.2837909 L101.313938,12.2837909 C101.235826,12.2837909 101.16597,12.3328879 101.140463,12.4053051 L98.4701917,19.940317 L95.5453934,12.4003375 C95.5187151,12.330213 95.4502511,12.28378 95.3744379,12.28378 L91.096396,12.28378 L91.0969707,12.2832232 L91.0969707,12.2832232 Z M85.5308889,12.2723382 L83.0269312,12.2723382 C82.925777,12.2723382 82.8433992,12.3537189 82.8433992,12.4536487 L82.8433992,23.2456434 C82.8433992,23.3455623 82.925777,23.4269539 83.0269312,23.4269539 L85.5308889,23.4269539 C85.6318442,23.4269539 85.714421,23.3455623 85.714421,23.2456434 L85.714421,12.454402 C85.7145301,12.4062465 85.6951999,12.3600354 85.6607118,12.3260037 C85.6262238,12.291972 85.5794243,12.2729287 85.5306789,12.2730916 L85.5308889,12.2723382 Z M84.2931223,7.3584725 C83.3011739,7.3584725 82.4962388,8.15174255 82.4962388,9.13169456 C82.4962388,10.1122143 83.3013728,10.906456 84.2931333,10.906456 C85.284706,10.906456 86.0888454,10.1122143 86.0888454,9.13169456 C86.0888454,8.15193907 85.2843081,7.3584725 84.2941059,7.3584725 L84.2931223,7.3584725 L84.2931223,7.3584725 Z M106.228634,15.7421619 C105.237648,15.7421619 104.466574,14.9559446 104.466574,14.0012235 C104.466574,13.0465023 105.247715,12.2513107 106.237918,12.2513107 C107.228927,12.2513107 108,13.0373314 108,13.9912883 C108,14.9460204 107.218649,15.7421619 106.228458,15.7421619 L106.228634,15.7421619 L106.228634,15.7421619 Z M106.238304,12.424411 C105.335707,12.424411 104.652803,13.1332435 104.652803,14.0012235 C104.652803,14.8688322 105.330867,15.5681117 106.22922,15.5681117 C107.131618,15.5681117 107.815308,14.8598579 107.815308,13.9912883 C107.815308,13.1236905 107.136459,12.424411 106.239089,12.424411 L106.238304,12.424411 L106.238304,12.424411 Z M106.628997,14.1703061 L107.127397,14.8596613 L106.707142,14.8596613 L106.258429,14.2272529 L105.872622,14.2272529 L105.872622,14.8596613 L105.520831,14.8596613 L105.520831,13.0323639 L106.345681,13.0323639 C106.775418,13.0323639 107.057982,13.2495936 107.057982,13.6152933 C107.059905,13.9148753 106.883921,14.0979107 106.630555,14.170317 L106.628997,14.170317 L106.628997,14.1703061 Z M106.331159,13.3458987 L105.87239,13.3458987 L105.87239,13.9238606 L106.331159,13.9238606 C106.560135,13.9238606 106.696853,13.8132314 106.696853,13.6345958 C106.696853,13.4465928 106.559549,13.3459096 106.331336,13.3459096 L106.331159,13.3459096 L106.331159,13.3458987 Z"></path>
                </g>
            </g>
        </g>
    </g>
</svg>