<?xml version="1.0" encoding="UTF-8"?>
<svg width="106px" height="32px" viewBox="0 0 106 32" version="1.1" xmlns="http://www.w3.org/2000/svg">
    <!-- Generator: Sketch 44.1 (41455) - http://www.bohemiancoding.com/sketch -->
    <title>webflow-logo-white</title>
    <desc>Created with Sketch.</desc>
    <defs></defs>
    <g id="Assets" stroke="none" stroke-width="1" fill="none" fill-rule="evenodd">
        <g id="Artboard" transform="translate(-888.000000, -370.000000)" fill="#FFFFFF">
            <g id="Logotypes" transform="translate(574.000000, 370.000000)">
                <g id="Webflow" transform="translate(314.000000, 0.000000)">
                    <path d="M63.9313589,3.09097826 L61.3603507,24.0828913 L61.3542521,24.0790761 L60.8315123,26.6748913 L61.0417699,26.6816413 L61.0417699,26.6816413 C63.8093863,26.6473043 65.7725644,24.1870761 66.1428384,21.0867717 L67.6282904,9.03802174 C68.0790082,5.36895652 65.917189,3.09097826 63.9313589,3.09097826 Z M100.369222,14.3840217 C100.369222,14.3840217 98.5977151,20.009413 98.4606411,20.4813261 C98.4115616,20.009413 97.1154575,9.90436957 97.1154575,9.90436957 C94.0977973,9.90436957 92.4839836,12.0761087 91.6324986,14.3813804 C91.6324986,14.3813804 89.4785205,20.0237935 89.3031123,20.4962935 C89.2929479,20.0531413 88.9723342,14.4397826 88.9723342,14.4397826 C88.7899562,11.6188696 86.2453753,9.91170652 84.1849096,9.91170652 L86.6632767,25.2207065 C89.8287562,25.2104348 91.5244658,23.0433913 92.4186411,20.7410543 C92.4186411,20.7410543 94.3144438,15.763663 94.3919836,15.5373913 C94.4117315,15.7533913 95.7548822,25.2221739 95.7548822,25.2221739 C98.9238466,25.2221739 100.633786,23.1927717 101.553518,20.9737826 L106,9.91170652 C102.867918,9.91170652 101.219836,12.0766957 100.369222,14.3840217 Z M78.3688493,17.3232065 C78.1858904,19.1985326 77.3692548,22.0320652 75.1365753,22.0320652 C72.895474,22.0320652 73.2143452,18.70725 73.4309918,17.1309783 C73.6633205,15.4387826 74.6028,13.044 76.5999562,13.044 C78.4045699,13.0425326 78.5756219,15.2054674 78.3688493,17.3232065 Z M76.9388658,9.64640217 C73.4109534,9.64640217 70.0851671,12.275087 69.063211,16.4110761 C68.0412548,20.5470652 69.5937918,25.4284891 74.7802411,25.4284891 C79.9666904,25.4284891 82.9465973,20.340163 82.9465973,16.1131957 C82.9465973,11.8862283 80.1243836,9.64640217 76.9388658,9.64640217 Z M61.0490301,9.91258696 L57.988389,9.91258696 L58.0032,9.75029348 C58.2114247,7.72529348 58.6906027,6.66407609 60.2393644,6.50148913 C61.2973315,6.39055435 61.7759288,5.83353261 61.8874466,5.23219565 C61.9745699,4.75969565 62.2704986,3.08980435 62.2704986,3.08980435 C56.1294685,3.054 54.2037534,5.7378587 53.7129589,9.81779348 L53.7016329,9.91053261 L53.640937,9.912 C52.6436658,9.912 51.5499781,11.0550978 51.3580164,12.5066413 L51.2906411,13.0413587 L53.3325205,13.0413587 L51.6190959,27.408587 L51.0998411,29.9911957 L51.310389,30 C54.177326,29.8902391 56.0225973,27.6008152 56.429463,24.2674891 L57.7676767,13.043413 L58.7260329,13.043413 C59.6652219,13.043413 60.7693644,12.0899022 60.9729425,10.4963152 L61.0490301,9.91258696 Z M45.4557041,17.4458804 C45.0023726,20.1458804 43.5192438,21.9686739 42.0831616,21.9686739 C40.6360438,21.9686739 40.0247288,21.3230217 40.0247288,21.3230217 C40.2942301,18.9611087 40.4737041,17.5125 41.0008,16.2658043 C41.5278959,15.0191087 42.7723068,13.0272717 44.0748,13.0272717 C45.3407014,13.0258043 45.909326,14.7461739 45.4557041,17.4458804 Z M45.8573425,9.55571739 C43.9098466,9.55571739 42.4087123,10.6272065 41.1454247,12.2105217 L41.1474575,12.1990761 L42.2701863,3 C39.6771068,3 37.5588493,5.28531522 37.1557589,8.67675 L35.1832877,25.1009674 C36.6791945,25.1009674 38.2633863,24.66075 39.1198082,23.5478804 C39.9577984,24.6972793 41.2953255,25.3646277 42.7078356,25.3380978 C47.0811342,25.3380978 50.0865973,20.1913696 50.0865973,15.359837 C50.0865973,10.9497391 47.9677589,9.55571739 45.8573425,9.55571739 L45.8573425,9.55571739 Z M16.1843123,14.3840217 C16.1843123,14.3840217 14.4128055,20.009413 14.2760219,20.4813261 C14.2275233,20.009413 12.9308384,9.90436957 12.9308384,9.90436957 C9.91317808,9.90436957 8.29907397,12.0761087 7.44816986,14.3813804 C7.44816986,14.3813804 5.29361096,20.0237935 5.11849315,20.4962935 C5.10861918,20.0531413 4.78742466,14.4397826 4.78742466,14.4397826 C4.60533699,11.6188696 2.06104658,9.91170652 0,9.91170652 L2.47894795,25.2207065 C5.6444274,25.2104348 7.33984658,23.0433913 8.23402192,20.7410543 C8.23402192,20.7410543 10.1298247,15.763663 10.2088164,15.5373913 C10.228274,15.7533913 11.5714247,25.2221739 11.5714247,25.2221739 C14.7400986,25.2221739 16.4503288,23.1927717 17.3697699,20.9737826 L21.8162521,9.91258696 C18.6832986,9.91170652 17.034926,12.0766957 16.1843123,14.3840217 Z M30.1376877,13.8701413 C30.0842521,14.4647283 29.8440822,15.4919022 25.6755233,16.0574348 C26.5548877,12.8966739 28.2311397,12.6618913 29.0062466,12.6618913 C29.3219099,12.6476011 29.6281315,12.7726761 29.8453181,13.0046066 C30.0625048,13.2365371 30.1692059,13.5524166 30.1376877,13.8701413 L30.1376877,13.8701413 Z M34.2205753,13.5473152 C34.2205753,11.6188696 32.3753041,9.57538043 29.1752658,9.57538043 C25.5799781,9.57538043 21.6364877,12.240163 21.0266247,17.5647391 C20.4103726,22.9485978 23.7210575,25.3269457 27.046263,25.3269457 C30.3714685,25.3269457 32.1223562,24.0150978 33.8999616,22.2562826 C32.3645589,20.2993696 30.385989,21.2106196 30.0104877,21.4005 C29.3810396,21.7522267 28.6691974,21.9254249 27.9503123,21.9017609 C26.6611781,21.9017609 25.3546192,21.3118696 25.3546192,18.8895 C33.5927068,18.0909457 34.2205753,15.4763478 34.2205753,13.5481957 L34.2205753,13.5473152 Z"></path>
                </g>
            </g>
        </g>
    </g>
</svg>